# xmcd
#
# Track frame offsets: 
#        150
#        19605
#        35096
#        52721
#
# Disc length: 891 seconds
#
# Revision: 0
# Processed by: cddbd v1.5.2PL0 Copyright (c) Steve Scherf et al.
# Submitted via: ExactAudioCopy v0.99pb3
#
DISCID=25037904
DTITLE=วิเชียร  ซำเหมา - เต้ยเครี'
DYEAR=2008
DGENRE=Country
TTITLE0=เต้ยเครี'
TTITLE1=มักบ่าวหมอลำบ่
TTITLE2=ของฝากจากงานดอง
TTITLE3=แบบว่า
EXTD=
EXTT0=
EXTT1=
EXTT2=
EXTT3=
PLAYORDER=
